<svg aria-hidden="true" style="position: absolute; width: 0; height: 0; overflow: hidden;" version="1.1" xmlns="http://www.w3.org/2000/svg" xmlns:xlink="http://www.w3.org/1999/xlink">
<defs>
<symbol id="icon-skype" viewBox="0 0 32 32">
<path fill="#00aff0" style="fill: var(--color1, #00aff0)" d="M16.092 25.165c-5.364 0-7.76-2.639-7.76-4.619 0-1.020 0.748-1.728 1.777-1.728 2.297 0 1.697 3.303 5.983 3.303 2.188 0 3.4-1.193 3.4-2.415 0-0.735-0.359-1.547-1.805-1.905l-4.768-1.193c-3.84-0.965-4.537-3.048-4.537-5.001 0-4.063 3.815-5.588 7.399-5.588 3.295 0 7.191 1.831 7.191 4.265 0 1.045-0.917 1.653-1.937 1.653-1.959 0-1.597-2.716-5.552-2.716-1.959 0-3.056 0.885-3.056 2.156s1.537 1.677 2.876 1.983l3.516 0.783c3.855 0.865 4.832 3.128 4.832 5.259 0 3.301-2.536 5.765-7.629 5.765zM30.799 18.657l-0.039 0.18-0.059-0.32c0.020 0.060 0.059 0.099 0.079 0.16 0.16-0.9 0.241-1.817 0.241-2.736 0-2.039-0.401-4.016-1.197-5.893-0.759-1.797-1.86-3.416-3.236-4.795-1.399-1.377-2.996-2.475-4.793-3.235-1.757-0.841-3.735-1.24-5.771-1.24-0.96 0-1.925 0.093-2.857 0.272l0.159 0.080-0.319-0.044 0.159-0.033c-1.285-0.688-2.727-1.053-4.191-1.053-2.385 0-4.627 0.931-6.315 2.623-1.688 1.691-2.617 3.941-2.617 6.332 0 1.524 0.389 3.020 1.125 4.344l0.027-0.165 0.055 0.319-0.080-0.153c-0.152 0.86-0.229 1.732-0.229 2.607 0 2.040 0.4 4.023 1.179 5.888 0.757 1.816 1.837 3.435 3.236 4.812 1.379 1.4 2.996 2.476 4.793 3.256 1.859 0.8 3.836 1.197 5.872 1.197 0.879 0 1.779-0.080 2.636-0.239l-0.159-0.083 0.32 0.061-0.18 0.040c1.336 0.759 2.835 1.161 4.392 1.161 2.377 0 4.612-0.92 6.311-2.617 1.679-1.679 2.616-3.935 2.616-6.332 0-1.517-0.399-3.016-1.137-4.355z"></path>
</symbol>
<symbol id="icon-github" viewBox="0 0 32 32">
<path d="M16 0.396c-8.84 0-16 7.164-16 16 0 7.071 4.584 13.067 10.94 15.18 0.8 0.151 1.093-0.344 1.093-0.769 0-0.38-0.013-1.387-0.020-2.72-4.451 0.965-5.389-2.147-5.389-2.147-0.728-1.847-1.78-2.34-1.78-2.34-1.449-0.992 0.112-0.972 0.112-0.972 1.607 0.112 2.451 1.648 2.451 1.648 1.427 2.447 3.745 1.74 4.66 1.331 0.144-1.035 0.556-1.74 1.013-2.14-3.553-0.4-7.288-1.776-7.288-7.907 0-1.747 0.62-3.173 1.647-4.293-0.18-0.404-0.72-2.031 0.14-4.235 0 0 1.34-0.429 4.4 1.64 1.28-0.356 2.64-0.532 4-0.54 1.36 0.008 2.72 0.184 4 0.54 3.040-2.069 4.38-1.64 4.38-1.64 0.86 2.204 0.32 3.831 0.16 4.235 1.020 1.12 1.64 2.547 1.64 4.293 0 6.147-3.74 7.5-7.3 7.893 0.56 0.48 1.080 1.461 1.080 2.96 0 2.141-0.020 3.861-0.020 4.381 0 0.42 0.28 0.92 1.1 0.76 6.401-2.099 10.981-8.099 10.981-15.159 0-8.836-7.164-16-16-16z"></path>
</symbol>
<symbol id="icon-researchgate" viewBox="0 0 32 32">
<path fill="#0cb" style="fill: var(--color2, #0cb)" d="M10.457 18.347c-0.615 0.007-1.228-0.017-1.84-0.069v-6.757c0.351-0.024 0.775-0.036 1.308-0.040l0.788-0.003c2.299 0 3.593 1.185 3.593 3.32 0 2.163-1.469 3.548-3.848 3.548zM28.001 0h-24c-2.209 0-4 1.791-4 4v24c0 2.209 1.791 4 4 4h24c2.209 0 4-1.791 4-4v-24c0-2.209-1.791-4-4-4zM20.201 27.775l-0.119 0.18c-0.336 0.153-0.871 0.245-1.384 0.245-1.64 0-3.021-0.632-3.945-1.744-1.1-1.268-2.735-3.692-4.272-6.432-0.885 0-1.216-0.007-1.644-0.028l-0.216-0.016v4.525c0 1.524 0.245 1.935 0.988 2.047l1.472 0.2 0.173 0.2v0.823l-0.208 0.2c-1.205-0.049-2.411-0.077-3.616-0.084-0.764 0-1.559 0.020-2.487 0.051l-0.931 0.035-0.205-0.2v-0.824l0.164-0.196 1.075-0.2c0.752-0.143 1-0.545 1-2.044v-11.192c0-1.499-0.248-1.903-0.996-2.045l-1.077-0.201-0.172-0.193v-0.824l0.208-0.2c1.641 0.047 3.284 0.041 4.924-0.015 0.988-0.029 1.58-0.041 2.291-0.041 3.577 0 5.892 1.74 5.892 4.856 0 2.2-1.668 4.333-3.892 4.983 1.228 2.141 2.771 4.245 4.149 5.756 0.819 0.884 1.772 1.44 2.628 1.44l0.2 0.2zM27.189 9.448c0 0.605-0.011 0.893-0.045 1.213-0.031 0.325-0.091 0.645-0.18 0.959-0.248 0.768-0.644 1.32-1.247 1.732-0.6 0.409-1.369 0.631-2.2 0.631-0.851 0-1.575-0.196-2.168-0.591-0.597-0.396-1.025-0.987-1.28-1.76-0.051-0.149-0.091-0.303-0.12-0.459-0.073-0.42-0.116-0.844-0.128-1.271-0.021-0.673-0.021-1.347 0-2.020 0.015-0.425 0.057-0.851 0.131-1.269 0.029-0.159 0.068-0.311 0.119-0.459 0.256-0.775 0.684-1.364 1.281-1.76 0.593-0.396 1.32-0.592 2.171-0.592 0.437 0 0.833 0.052 1.189 0.155 0.355 0.104 0.672 0.245 0.951 0.429s0.516 0.396 0.716 0.64c0.197 0.24 0.36 0.5 0.483 0.761 0.097 0.173 0.060 0.36-0.14 0.48l-1.013 0.415c-0.187 0.104-0.376 0.036-0.468-0.148-0.248-0.455-0.424-0.673-0.688-0.84-0.305-0.196-0.665-0.291-1.028-0.271-0.46 0-0.672 0.071-1.012 0.311-0.316 0.215-0.551 0.532-0.661 0.897-0.075 0.228-0.12 0.464-0.136 0.704-0.063 1.039-0.063 2.081 0 3.12 0.016 0.24 0.061 0.476 0.136 0.704 0.087 0.331 0.296 0.616 0.584 0.8 0.321 0.217 0.703 0.327 1.091 0.313 0.389 0.011 0.772-0.097 1.1-0.308 0.268-0.181 0.465-0.449 0.557-0.76l0.056-0.195c0.035-0.124 0.063-0.251 0.083-0.379 0.028-0.173 0.035-0.32 0.035-0.705h-1.543l-0.004-0.007c-0.204 0-0.34-0.136-0.34-0.34v-0.94c0-0.201 0.136-0.34 0.34-0.34h3.040c0.201 0 0.34 0.139 0.34 0.34z"></path>
</symbol>
<symbol id="icon-orcid" viewBox="0 0 32 32">
<path fill="#a6ce39" style="fill: var(--color3, #a6ce39)" d="M16 0c-8.837 0-16 7.163-16 16s7.163 16 16 16 16-7.163 16-16-7.163-16-16-16zM9.825 5.837c0.7 0 1.263 0.575 1.263 1.263s-0.563 1.263-1.263 1.263c-0.696-0.002-1.26-0.566-1.263-1.262v-0c0-0.7 0.563-1.263 1.263-1.263zM8.863 9.888h1.925v13.388h-1.925zM13.612 9.888h5.2c4.949 0 7.125 3.537 7.125 6.7 0 3.437-2.688 6.7-7.1 6.7h-5.225zM15.537 11.625v9.925h3.063c4.363 0 5.363-3.312 5.363-4.963 0-2.688-1.712-4.963-5.463-4.963z"></path>
</symbol>
</defs>
</svg>
